#!OML:ASF H:\Pregnant\Project 1\Capture day 1\Session 1\femalepreg.ASF
:FULLY-SPECIFIED
:DEGREES
237
root 3.61149 15.5672 31.2648 38.4734 -84.8073 33.4694
lowerback 10.9503 4.36598 3.62607
upperback 8.33246 5.4363 4.47571
thorax 2.51559 2.52673 2.15802
lowerneck -13.3353 8.87769 12.1287
upperneck 26.3576 7.60201 2.91985
head 11.2439 4.7461 0.0749005
rclavicle -8.90555e-014 -7.61345e-014
rhumerus -20.3962 59.5118 -82.8019
rradius 87.9888
rwrist -52.9214
rhand 32.7725 -12.9995
rfingers 7.12502
rthumb 56.1808 -30.2482
lclavicle -8.90555e-014 -7.61345e-014
lhumerus -41.7061 -10.0197 69.7997
lradius 40.1422
lwrist 58.8525
lhand -2.54956 -0.0670453
lfingers 7.12502
lthumb 23.1462 28.5624
rfemur -96.6085 4.10245 -0.0359281
rtibia 28.1547
rfoot 0.424505 -19.3565
rtoes 8.31726
lfemur 0 0 0
ltibia 0
lfoot 0 0
ltoes 0
238
root 3.60968 15.567 31.2665 38.222 -84.8533 33.7239
lowerback 10.9703 4.36485 3.60595
upperback 8.34204 5.43281 4.47984
thorax 2.51254 2.52369 2.17263
lowerneck -13.356 8.86314 12.1353
upperneck 26.3446 7.60207 2.84837
head 11.2456 4.73934 0.0486744
rclavicle 2.54444e-014 -1.63003e-014
rhumerus -20.3425 59.5522 -82.7464
rradius 87.9833
rwrist -52.9009
rhand 32.7204 -12.9506
rfingers 7.12502
rthumb 56.1346 -30.2354
lclavicle 2.54444e-014 -1.63003e-014
lhumerus -41.6239 -9.92507 69.7855
lradius 40.1322
lwrist 58.7804
lhand -2.61963 -0.094511
lfingers 7.12502
lthumb 23.079 28.5434
rfemur -96.6078 4.11093 -0.0644713
rtibia 28.1375
rfoot 0.453536 -19.3379
rtoes 8.24961
lfemur 0 0 0
ltibia 0
lfoot 0 0
ltoes 0
239
root 3.60811 15.567 31.2681 37.9648 -84.9006 33.9766
lowerback 10.9858 4.36375 3.58443
upperback 8.35097 5.42919 4.48298
thorax 2.51115 2.52063 2.1873
lowerneck -13.3762 8.84811 12.1499
upperneck 26.3227 7.60131 2.77339
head 11.2443 4.73232 0.0196138
rclavicle -6.36111e-014 1.0138e-014
rhumerus -20.2938 59.5929 -82.6973
rradius 87.9764
rwrist -52.8839
rhand 32.6811 -12.9024
rfingers 7.12502
rthumb 56.0999 -30.2144
lclavicle -6.36111e-014 1.0138e-014
lhumerus -41.5484 -9.84496 69.7764
lradius 40.1204
lwrist 58.7126
lhand -2.63196 -0.105966
lfingers 7.12502
lthumb 23.0671 28.5334
rfemur -96.6 4.12427 -0.0926676
rtibia 28.1189
rfoot 0.487879 -19.3201
rtoes 8.14118
lfemur 0 0 0
ltibia 0
lfoot 0 0
ltoes 0
240
root 3.60673 15.5671 31.2698 37.7121 -84.9475 34.2161
lowerback 10.9964 4.36246 3.56616
upperback 8.36022 5.42537 4.48395
thorax 2.51331 2.51772 2.19834
lowerneck -13.3951 8.83101 12.1631
upperneck 26.2861 7.5953 2.71172
head 11.2363 4.72381 -0.00568835
rclavicle -3.49861e-014 -9.74045e-015
rhumerus -20.248 59.63 -82.6539
rradius 87.9688
rwrist -52.8719
rhand 32.6488 -12.8548
rfingers 7.12502
rthumb 56.0713 -30.1891
lclavicle -3.49861e-014 -9.74045e-015
lhumerus -41.4791 -9.79095 69.7747
lradius 40.1085
lwrist 58.6553
lhand -2.60164 -0.0970361
lfingers 7.12502
lthumb 23.0962 28.5387
rfemur -96.5841 4.14137 -0.118902
rtibia 28.1004
rfoot 0.52426 -19.301
rtoes 8.0126
lfemur 0 0 0
ltibia 0
lfoot 0 0
ltoes 0
241
root 3.60544 15.5674 31.2715 37.4587 -84.994 34.4474
lowerback 11.0029 4.36131 3.55362
upperback 8.36986 5.42197 4.48236
thorax 2.51896 2.51536 2.2039
lowerneck -13.4123 8.81267 12.1741
upperneck 26.241 7.58692 2.65728
head 11.2243 4.71459 -0.0286886
rclavicle 2.54444e-014 -2.34566e-014
rhumerus -20.21 59.6631 -82.6146
rradius 87.9649
rwrist -52.8657
rhand 32.6244 -12.803
rfingers 7.12502
rthumb 56.0496 -30.1542
lclavicle 2.54444e-014 -2.34566e-014
lhumerus -41.4159 -9.77761 69.7861
lradius 40.0982
lwrist 58.6138
lhand -2.55348 -0.0740654
lfingers 7.12502
lthumb 23.1424 28.5559
rfemur -96.5589 4.16077 -0.143703
rtibia 28.0826
rfoot 0.550299 -19.2816
rtoes 7.9436
lfemur 0 0 0
ltibia 0
lfoot 0 0
ltoes 0
242
root 3.60421 15.5678 31.2735 37.1997 -85.0391 34.6774
lowerback 11.0043 4.35826 3.54626
upperback 8.37944 5.41633 4.47863
thorax 2.52807 2.51223 2.20498
lowerneck -13.4285 8.79416 12.1773
upperneck 26.1877 7.57694 2.61644
head 11.208 4.70515 -0.0460893
rclavicle 5.40694e-014 2.40529e-014
rhumerus -20.1755 59.6991 -82.5778
rradius 87.9635
rwrist -52.8733
rhand 32.6127 -12.7502
rfingers 7.12502
rthumb 56.0393 -30.1094
lclavicle 5.40694e-014 2.40529e-014
lhumerus -41.361 -9.80791 69.8134
lradius 40.0899
lwrist 58.5903
lhand -2.48944 -0.0428787
lfingers 7.12502
lthumb 23.2039 28.5793
rfemur -96.5265 4.18077 -0.16715
rtibia 28.0664
rfoot 0.567979 -19.2614
rtoes 7.91146
lfemur 0 0 0
ltibia 0
lfoot 0 0
ltoes 0
243
root 3.60299 15.5683 31.2755 36.9139 -85.084 34.9274
lowerback 11.0009 4.3548 3.54078
upperback 8.38919 5.41014 4.47272
thorax 2.54036 2.50904 2.20319
lowerneck -13.4468 8.77595 12.1745
upperneck 26.1315 7.56599 2.58524
head 11.1901 4.69568 -0.0592395
rclavicle 3.81667e-014 -3.18055e-015
rhumerus -20.1422 59.734 -82.5397
rradius 87.9653
rwrist -52.8923
rhand 32.6047 -12.6934
rfingers 7.12502
rthumb 56.0322 -30.0581
lclavicle 3.81667e-014 -3.18055e-015
lhumerus -41.3106 -9.87457 69.8548
lradius 40.0835
lwrist 58.5668
lhand -2.43425 -0.00656929
lfingers 7.12502
lthumb 23.2568 28.609
rfemur -96.4866 4.20095 -0.191548
rtibia 28.0519
rfoot 0.574385 -19.2424
rtoes 7.94239
lfemur 0 0 0
ltibia 0
lfoot 0 0
ltoes 0
244
root 3.60181 15.5689 31.2774 36.6072 -85.1289 35.1939
lowerback 10.9901 4.35102 3.53243
upperback 8.39769 5.40325 4.46683
thorax 2.555 2.50549 2.20351
lowerneck -13.4642 8.75881 12.1692
upperneck 26.0798 7.55745 2.55243
head 11.1739 4.68704 -0.0721215
rclavicle 4.45278e-014 1.63003e-014
rhumerus -20.1109 59.7722 -82.5
rradius 87.9694
rwrist -52.9254
rhand 32.6131 -12.6378
rfingers 7.12502
rthumb 56.0397 -29.9968
lclavicle 4.45278e-014 1.63003e-014
lhumerus -41.2658 -9.96809 69.9082
lradius 40.079
lwrist 58.5346
lhand -2.37047 0.0386997
lfingers 7.12502
lthumb 23.318 28.6465
rfemur -96.4426 4.22234 -0.216602
rtibia 28.039
rfoot 0.580526 -19.2243
rtoes 7.93805
lfemur 0 0 0
ltibia 0
lfoot 0 0
ltoes 0
245
root 3.60081 15.5696 31.2793 36.2824 -85.1734 35.4772
lowerback 10.9697 4.34664 3.52007
upperback 8.40425 5.39518 4.46103
thorax 2.57239 2.50133 2.20683
lowerneck -13.4811 8.74548 12.1662
upperneck 26.0414 7.55691 2.50555
head 11.1636 4.68111 -0.0888789
rclavicle -6.36111e-015 1.11319e-014
rhumerus -20.0762 59.8154 -82.4576
rradius 87.9735
rwrist -52.9713
rhand 32.6315 -12.5851
rfingers 7.12502
rthumb 56.0559 -29.9314
lclavicle -6.36111e-015 1.11319e-014
lhumerus -41.2268 -10.0793 69.9721
lradius 40.0771
lwrist 58.4819
lhand -2.30325 0.0776852
lfingers 7.12502
lthumb 23.3825 28.6773
rfemur -96.3983 4.24385 -0.242082
rtibia 28.0279
rfoot 0.58638 -19.2065
rtoes 7.90612
lfemur 0 0 0
ltibia 0
lfoot 0 0
ltoes 0
246
root 3.60007 15.5703 31.281 35.9389 -85.2168 35.7796
lowerback 10.9392 4.34202 3.50328
upperback 8.40728 5.38654 4.45649
thorax 2.59087 2.49682 2.21446
lowerneck -13.4994 8.73413 12.1625
upperneck 26.0166 7.56136 2.44807
head 11.1593 4.67664 -0.108178
rclavicle 9.54166e-015 -8.15017e-015
rhumerus -20.0382 59.8608 -82.4154
rradius 87.9726
rwrist -53.022
rhand 32.6675 -12.5396
rfingers 7.12502
rthumb 56.0879 -29.861
lclavicle 9.54166e-015 -8.15017e-015
lhumerus -41.1939 -10.1979 70.0445
lradius 40.0771
lwrist 58.3978
lhand -2.23356 0.110055
lfingers 7.12502
lthumb 23.4494 28.7011
rfemur -96.356 4.26474 -0.267705
rtibia 28.0188
rfoot 0.596183 -19.1875
rtoes 7.83819
lfemur 0 0 0
ltibia 0
lfoot 0 0
ltoes 0
247
root 3.59964 15.5711 31.2826 35.5527 -85.2566 36.126
lowerback 10.8965 4.33674 3.48319
upperback 8.40681 5.37677 4.45368
thorax 2.61181 2.49174 2.22649
lowerneck -13.5196 8.72411 12.1631
upperneck 26.0095 7.57131 2.37007
head 11.1634 4.6734 -0.134159
rclavicle 1.59028e-014 6.16232e-014
rhumerus -19.9951 59.9071 -82.3701
rradius 87.9671
rwrist -53.0719
rhand 32.6856 -12.4943
rfingers 7.12502
rthumb 56.1039 -29.8032
lclavicle 1.59028e-014 6.16232e-014
lhumerus -41.1653 -10.3241 70.1276
lradius 40.0791
lwrist 58.2834
lhand -2.17476 0.122221
lfingers 7.12502
lthumb 23.5058 28.7061
rfemur -96.3172 4.28211 -0.293671
rtibia 28.0135
rfoot 0.612097 -19.169
rtoes 7.7283
lfemur 0 0 0
ltibia 0
lfoot 0 0
ltoes 0
248
root 3.59951 15.572 31.2841 35.1369 -85.2938 36.5016
lowerback 10.841 4.32988 3.46208
upperback 8.40461 5.36462 4.45096
thorax 2.63773 2.48559 2.2402
lowerneck -13.5415 8.71496 12.1625
upperneck 26.0073 7.5829 2.2899
head 11.1697 4.67068 -0.160294
rclavicle 9.54166e-015 2.28602e-014
rhumerus -19.9431 59.9551 -82.3234
rradius 87.9563
rwrist -53.1174
rhand 32.7087 -12.4578
rfingers 7.12502
rthumb 56.1243 -29.7507
lclavicle 9.54166e-015 2.28602e-014
lhumerus -41.1398 -10.4542 70.2172
lradius 40.0814
lwrist 58.148
lhand -2.12589 0.112556
lfingers 7.12502
lthumb 23.5526 28.6904
rfemur -96.2806 4.29679 -0.319577
rtibia 28.0138
rfoot 0.620185 -19.1521
rtoes 7.64277
lfemur 0 0 0
ltibia 0
lfoot 0 0
ltoes 0
249
root 3.59947 15.5728 31.2857 34.6679 -85.3266 36.9252
lowerback 10.775 4.32233 3.44032
upperback 8.40213 5.35116 4.44944
thorax 2.66894 2.47883 2.25637
lowerneck -13.5641 8.70386 12.1606
upperneck 26.0053 7.59221 2.20963
head 11.1761 4.66684 -0.186595
rclavicle -3.81667e-014 -2.92213e-014
rhumerus -19.8872 59.9993 -82.2732
rradius 87.9445
rwrist -53.1564
rhand 32.7148 -12.4236
rfingers 7.12502
rthumb 56.1297 -29.7123
lclavicle -3.81667e-014 -2.92213e-014
lhumerus -41.1155 -10.5953 70.3173
lradius 40.0836
lwrist 58.0117
lhand -2.08828 0.086099
lfingers 7.12502
lthumb 23.5887 28.6593
rfemur -96.2411 4.30771 -0.345711
rtibia 28.0212
rfoot 0.61771 -19.138
rtoes 7.5949
lfemur 0 0 0
ltibia 0
lfoot 0 0
ltoes 0
